HIERARCHY
ROOT Hips
{
 OFFSET 0.000000 0.000000 0.000000
 CHANNELS 6 Xposition Yposition Zposition Yrotation Xrotation Zrotation
 JOINT Chest
 {
  OFFSET 0.000000 103.927959 -11.547555
  CHANNELS 3 Yrotation Xrotation Zrotation
  JOINT Chest2
  {
   OFFSET 0.000000 116.259650 0.000000
   CHANNELS 3 Yrotation Xrotation Zrotation
   JOINT Chest3
   {
    OFFSET 0.000000 106.135078 0.000000
    CHANNELS 3 Yrotation Xrotation Zrotation
    JOINT Chest4
    {
     OFFSET 0.000000 106.016608 0.000000
     CHANNELS 3 Yrotation Xrotation Zrotation
     JOINT Neck
     {
      OFFSET 0.000000 148.478086 0.000000
      CHANNELS 3 Yrotation Xrotation Zrotation
      JOINT Head
      {
       OFFSET 0.000000 98.684725 0.000000
       CHANNELS 3 Yrotation Xrotation Zrotation
       End Site
       {
        OFFSET 0.000000 183.657339 0.000000
       }
      }
     }
     JOINT RightCollar
     {
      OFFSET -32.301251 83.229558 0.000000
      CHANNELS 3 Yrotation Xrotation Zrotation
      JOINT RightShoulder
      {
       OFFSET -148.983121 0.000000 0.000000
       CHANNELS 3 Yrotation Xrotation Zrotation
       JOINT RightElbow
       {
        OFFSET 0.000000 -318.416921 0.000000
        CHANNELS 3 Yrotation Xrotation Zrotation
        JOINT RightWrist
        {
         OFFSET 0.000000 -260.384535 0.000000
         CHANNELS 3 Yrotation Xrotation Zrotation
         End Site
         {
          OFFSET 0.000000 -194.729091 0.000000
         }
        }
       }
      }
     }
     JOINT LeftCollar
     {
      OFFSET 32.301251 83.229558 0.000000
      CHANNELS 3 Yrotation Xrotation Zrotation
      JOINT LeftShoulder
      {
       OFFSET 148.983121 0.000000 0.000000
       CHANNELS 3 Yrotation Xrotation Zrotation
       JOINT LeftElbow
       {
        OFFSET 0.000000 -318.416921 0.000000
        CHANNELS 3 Yrotation Xrotation Zrotation
        JOINT LeftWrist
        {
         OFFSET 0.000000 -260.384535 0.000000
         CHANNELS 3 Yrotation Xrotation Zrotation
         End Site
         {
          OFFSET 0.000000 -194.729091 0.000000
         }
        }
       }
      }
     }
    }
   }
  }
 }
 JOINT RightHip
 {
  OFFSET -85.448433 0.000000 0.000000
  CHANNELS 3 Yrotation Xrotation Zrotation
  JOINT RightKnee
  {
   OFFSET 0.000000 -444.902608 0.000000
   CHANNELS 3 Yrotation Xrotation Zrotation
   JOINT RightAnkle
   {
    OFFSET 0.000000 -434.916856 0.000000
    CHANNELS 3 Yrotation Xrotation Zrotation
    JOINT RightToe
    {
     OFFSET 0.000000 -65.483541 148.093546
     CHANNELS 3 Yrotation Xrotation Zrotation
     End Site
     {
      OFFSET 0.000000 -15.533754 66.277348
     }
    }
   }
  }
 }
 JOINT LeftHip
 {
  OFFSET 85.448433 0.000000 0.000000
  CHANNELS 3 Yrotation Xrotation Zrotation
  JOINT LeftKnee
  {
   OFFSET 0.000000 -444.902608 0.000000
   CHANNELS 3 Yrotation Xrotation Zrotation
   JOINT LeftAnkle
   {
    OFFSET 0.000000 -434.916856 0.000000
    CHANNELS 3 Yrotation Xrotation Zrotation
    JOINT LeftToe
    {
     OFFSET 0.000000 -65.483541 148.093546
     CHANNELS 3 Yrotation Xrotation Zrotation
     End Site
     {
      OFFSET 0.000000 -15.533754 66.277348
     }
    }
   }
  }
 }
}
MOTION
Frames: 16
Frame Time: 0.016667
-1843.114463 958.724103 3852.274655 -142.480956 6.136192 -0.945202 -0.600408 -4.770105 -1.256682 -0.221709 -7.944474 -0.569281 -0.219670 -2.124085 -0.591805 -0.212086 4.243656 -0.445633 9.198292 21.787366 9.043929 14.093178 4.102384 13.770914 0.052163 -6.818520 10.366836 43.616921 -41.350761 -21.680280 -21.786465 -52.478664 52.034623 -26.342663 6.246496 -2.597726 -2.801639 -2.389146 -4.374725 -33.896154 -36.618936 53.490092 26.771804 -79.114000 -58.228110 -3.572049 -4.007264 -30.413008 -6.234411 -5.611997 -0.280344 0.203957 4.462050 0.006567 -12.138449 -6.926564 2.434527 0.000000 0.000000 0.000000 5.785270 -8.239039 5.335526 -0.447780 3.926079 -0.060044 8.281300 -2.135576 -0.966570 0.000000 -0.000000 0.000000
-1843.279703 958.666823 3852.073786 -142.486506 6.083435 -0.951084 -0.604389 -4.718659 -1.234501 -0.224130 -7.921637 -0.559305 -0.222080 -2.101249 -0.582074 -0.213096 4.260787 -0.438333 9.218028 21.787300 9.041724 14.129439 4.101668 13.761366 0.069109 -6.849987 10.298396 43.606592 -41.382922 -21.671266 -21.818411 -52.474593 52.053000 -26.363696 6.281784 -2.579164 -2.773442 -2.432765 -4.401716 -33.895902 -36.626913 53.450492 26.691139 -79.156734 -58.111555 -3.608980 -3.986988 -30.415261 -6.212549 -5.534332 -0.299845 0.200083 4.462417 0.035058 -12.148282 -6.942833 2.429268 0.000000 -0.000000 -0.000000 5.790144 -8.166294 5.331929 -0.458521 3.917257 -0.022704 8.296380 -2.135229 -0.983171 0.000000 0.000000 0.000000
-1843.444942 958.609543 3851.872918 -142.492051 6.030677 -0.956961 -0.608364 -4.667209 -1.212334 -0.226554 -7.898799 -0.549333 -0.224492 -2.078412 -0.572349 -0.214108 4.277920 -0.431036 9.237754 21.787253 9.039497 14.165691 4.100996 13.751789 0.086042 -6.881446 10.229941 43.596250 -41.415081 -21.662229 -21.850351 -52.470510 52.071376 -26.384718 6.317094 -2.560636 -2.745224 -2.476360 -4.428748 -33.895661 -36.634882 53.410898 26.609763 -79.199447 -57.994297 -3.645919 -3.966731 -30.417535 -6.190699 -5.456662 -0.319303 0.196222 4.462781 0.063551 -12.158116 -6.959103 2.424013 0.000000 -0.000000 -0.000000 5.795030 -8.093550 5.328335 -0.469256 3.908447 0.014642 8.311456 -2.134876 -0.999774 0.000000 0.000000 0.000000
-1843.605871 958.565123 3851.650001 -142.497963 5.984970 -0.960792 -0.606461 -4.624664 -1.195473 -0.226210 -7.879924 -0.541694 -0.224160 -2.059537 -0.564674 -0.213229 4.292077 -0.425271 9.250055 21.789206 9.041283 14.187509 4.104123 13.751667 0.097506 -6.904766 10.172554 43.569465 -41.441514 -21.643089 -21.881772 -52.470523 52.088479 -26.400001 6.339229 -2.546060 -2.728146 -2.511313 -4.451738 -33.894982 -36.650742 53.363157 26.507837 -79.233115 -57.858830 -3.685617 -3.936519 -30.431249 -6.174383 -5.385071 -0.336618 0.193642 4.457222 0.088616 -12.164130 -6.971640 2.418775 0.000000 0.000000 0.000000 5.798361 -8.026816 5.325314 -0.471456 3.900764 0.045396 8.322055 -2.138431 -1.012435 -0.000000 0.000000 -0.000000
-1843.759253 958.541109 3851.396283 -142.505272 5.949958 -0.962428 -0.595247 -4.595797 -1.185884 -0.221516 -7.867140 -0.537241 -0.219512 -2.046751 -0.559744 -0.209338 4.301663 -0.421552 9.251904 21.798105 9.051018 14.188582 4.120128 13.769241 0.100880 -6.914917 10.130896 43.517635 -41.458361 -21.607433 -21.912502 -52.476878 52.101846 -26.403947 6.337948 -2.536634 -2.728529 -2.533834 -4.468712 -33.890711 -36.679557 53.299060 26.368528 -79.252994 -57.689657 -3.735909 -3.889802 -30.461386 -6.166409 -5.322831 -0.350410 0.192302 4.441696 0.109488 -12.162916 -6.977312 2.413335 0.000000 -0.000000 0.000000 5.799959 -7.972213 5.324837 -0.461967 3.900561 0.064177 8.326306 -2.151283 -1.019702 -0.000000 -0.000000 -0.000000
-1843.908324 958.529954 3851.120516 -142.512955 5.921997 -0.962020 -0.578161 -4.575840 -1.181578 -0.214054 -7.858321 -0.535111 -0.212119 -2.037930 -0.556856 -0.203553 4.308273 -0.419357 9.246342 21.808977 9.064796 14.175240 4.139874 13.796310 0.098788 -6.916926 10.100322 43.449358 -41.469458 -21.561658 -21.942741 -52.487334 52.113979 -26.402175 6.323475 -2.531116 -2.740070 -2.547737 -4.481603 -33.885923 -36.716249 53.226760 26.209125 -79.263800 -57.502722 -3.789034 -3.833186 -30.502986 -6.163965 -5.266676 -0.362104 0.192229 4.420253 0.126933 -12.157882 -6.979249 2.407906 0.000000 0.000000 0.000000 5.799993 -7.923618 5.324924 -0.443944 3.901472 0.076354 8.326085 -2.168050 -1.023027 -0.000000 -0.000000 0.000000
-1844.058485 958.521883 3850.826901 -142.518304 5.897214 -0.957984 -0.559645 -4.559392 -1.181909 -0.205800 -7.851058 -0.535051 -0.203941 -2.030663 -0.555958 -0.197339 4.313716 -0.418656 9.235058 21.808926 9.074889 14.152017 4.139773 13.817704 0.093646 -6.917745 10.077950 43.373981 -41.480637 -21.514875 -21.972532 -52.499257 52.131044 -26.405784 6.313319 -2.529770 -2.755008 -2.555821 -4.492169 -33.889544 -36.753517 53.162666 26.061029 -79.270720 -57.327738 -3.824337 -3.776393 -30.552522 -6.164140 -5.212887 -0.373810 0.194797 4.399120 0.139807 -12.155442 -6.983112 2.403139 0.000000 0.000000 0.000000 5.797405 -7.868676 5.320216 -0.418331 3.885523 0.091436 8.322537 -2.176493 -1.022830 0.000000 0.000000 0.000000
-1844.216595 958.514537 3850.509176 -142.522081 5.873332 -0.948155 -0.539239 -4.544480 -1.188258 -0.196498 -7.844472 -0.537672 -0.194722 -2.024074 -0.557634 -0.190550 4.318649 -0.419886 9.216420 21.794152 9.078566 14.116514 4.112974 13.828737 0.086264 -6.919978 10.065260 43.286653 -41.495010 -21.467065 -22.001935 -52.512320 52.159354 -26.421073 6.314889 -2.535006 -2.770945 -2.557399 -4.500869 -33.910100 -36.789285 53.116118 25.934591 -79.274366 -57.173186 -3.826195 -3.723329 -30.612797 -6.168652 -5.158811 -0.386683 0.203692 4.379886 0.145548 -12.156711 -6.991024 2.399973 0.000000 0.000000 -0.000000 5.791319 -7.802115 5.306373 -0.382790 3.848689 0.114337 8.315965 -2.174614 -1.015711 0.000000 -0.000000 0.000000
-1844.375794 958.510274 3850.173603 -142.523529 5.852627 -0.934702 -0.517402 -4.533068 -1.199244 -0.186403 -7.839439 -0.542362 -0.184717 -2.019038 -0.561299 -0.183331 4.322416 -0.422609 9.192049 21.768465 9.078541 14.071100 4.066354 13.834092 0.075838 -6.921030 10.060771 43.192213 -41.509453 -21.418243 -22.030896 -52.526828 52.192600 -26.441730 6.320767 -2.544444 -2.790281 -2.553154 -4.507240 -33.939107 -36.825640 53.077809 25.819742 -79.274163 -57.030863 -3.810237 -3.669952 -30.680918 -6.175793 -5.107103 -0.399573 0.215229 4.360960 0.146709 -12.160572 -7.000863 2.397471 0.000000 -0.000000 -0.000000 5.782580 -7.729212 5.287727 -0.339677 3.794979 0.140087 8.306061 -2.164417 -1.005065 -0.000000 -0.000000 0.000000
-1844.520904 958.506395 3849.843171 -142.517662 5.838053 -0.922541 -0.499951 -4.525667 -1.210090 -0.178266 -7.836179 -0.547040 -0.176651 -2.015775 -0.565149 -0.177584 4.324855 -0.425478 9.168506 21.730383 9.075245 14.027445 3.996922 13.832635 0.062358 -6.920063 10.057161 43.114557 -41.520469 -21.377579 -22.059256 -52.541107 52.217989 -26.459935 6.326237 -2.551177 -2.812448 -2.547949 -4.511672 -33.960010 -36.861545 53.036205 25.716976 -79.273542 -56.905193 -3.802641 -3.614069 -30.744830 -6.177508 -5.061994 -0.411108 0.219735 4.343787 0.149830 -12.170092 -7.011921 2.393476 0.000000 -0.000000 -0.000000 5.772713 -7.653429 5.271944 -0.296977 3.718481 0.163358 8.293050 -2.139656 -1.001500 0.000000 0.000000 0.000000
-1844.651018 958.502610 3849.523407 -142.502716 5.831039 -0.913005 -0.488633 -4.523915 -1.219203 -0.172921 -7.835417 -0.551009 -0.171353 -2.015011 -0.568575 -0.173881 4.325422 -0.428036 9.150194 21.681699 9.069392 13.993371 3.907811 13.824503 0.044651 -6.915181 10.052039 43.069159 -41.525463 -21.352808 -22.086049 -52.555175 52.226808 -26.474722 6.329209 -2.552330 -2.839883 -2.541853 -4.514518 -33.963800 -36.897635 52.985332 25.625589 -79.274480 -56.796639 -3.812834 -3.548925 -30.806806 -6.168047 -5.026305 -0.421632 0.211675 4.331323 0.157520 -12.187612 -7.025438 2.386985 -0.000000 -0.000000 -0.000000 5.761548 -7.571641 5.261677 -0.255262 3.608404 0.181559 8.277476 -2.093114 -1.010009 -0.000000 -0.000000 -0.000000
-1844.767042 958.499209 3849.208784 -142.480450 5.830152 -0.904762 -0.481698 -4.526179 -1.228190 -0.169532 -7.836428 -0.554969 -0.167993 -2.016021 -0.572192 -0.171650 4.324660 -0.430743 9.132709 21.620623 9.060255 13.961040 3.795892 13.809537 0.023892 -6.908280 10.047794 43.040576 -41.527061 -21.336237 -22.112223 -52.569040 52.227745 -26.487062 6.331785 -2.550764 -2.870147 -2.534796 -4.515432 -33.959458 -36.933272 52.931144 25.546273 -79.275015 -56.704726 -3.831395 -3.481337 -30.864609 -6.153148 -4.997202 -0.430770 0.196586 4.320609 0.167179 -12.210790 -7.040177 2.379007 0.000000 -0.000000 -0.000000 5.749262 -7.486967 5.254303 -0.213971 3.475545 0.197183 8.258787 -2.031998 -1.025591 0.000000 0.000000 0.000000
-1844.856529 958.494366 3848.905712 -142.451155 5.834058 -0.898723 -0.479724 -4.528072 -1.237071 -0.168345 -7.837261 -0.558931 -0.166816 -2.016854 -0.576033 -0.171073 4.324033 -0.433627 9.109418 21.540297 9.046123 13.918649 3.648764 13.786189 0.003590 -6.904194 10.044286 43.006336 -41.529614 -21.313901 -22.140500 -52.581014 52.234103 -26.492052 6.335551 -2.548156 -2.895358 -2.531429 -4.513744 -33.957414 -36.965499 52.879994 25.481567 -79.272664 -56.632425 -3.856150 -3.429555 -30.899465 -6.141977 -4.970435 -0.436053 0.181399 4.304211 0.177534 -12.235670 -7.051714 2.370399 0.000000 0.000000 0.000000 5.737925 -7.412221 5.249589 -0.179378 3.346375 0.212585 8.235572 -1.971690 -1.043877 0.000000 0.000000 0.000000
-1844.910485 958.486453 3848.614814 -142.413428 5.842613 -0.895805 -0.484911 -4.528497 -1.246122 -0.170321 -7.837423 -0.563037 -0.168774 -2.017016 -0.580340 -0.172886 4.323912 -0.436872 9.080335 21.436037 9.026935 13.865980 3.457784 13.754107 -0.015846 -6.905537 10.042327 42.961584 -41.536107 -21.283959 -22.172937 -52.588407 52.250770 -26.486637 6.344170 -2.541740 -2.910843 -2.535213 -4.507406 -33.960289 -36.992518 52.830910 25.425664 -79.267311 -56.573079 -3.891568 -3.402715 -30.895691 -6.137244 -4.943926 -0.436357 0.168839 4.278127 0.189468 -12.262601 -7.058205 2.361402 -0.000000 -0.000000 -0.000000 5.727056 -7.348837 5.248061 -0.152299 3.222669 0.229714 8.205969 -1.913536 -1.065376 0.000000 0.000000 0.000000
-1844.937902 958.477097 3848.335468 -142.368671 5.855963 -0.895079 -0.495062 -4.528550 -1.255064 -0.174499 -7.837405 -0.567144 -0.172915 -2.017000 -0.584871 -0.176354 4.323927 -0.440292 9.045479 21.312525 9.002822 13.803280 3.231597 13.713807 -0.034828 -6.909693 10.041109 42.911165 -41.543534 -21.248233 -22.207477 -52.593894 52.272860 -26.473870 6.353973 -2.534274 -2.921279 -2.542690 -4.498463 -33.965484 -37.016127 52.784880 25.384411 -79.259069 -56.533377 -3.933098 -3.391691 -30.868993 -6.136228 -4.919762 -0.432807 0.156179 4.246356 0.202083 -12.291233 -7.061498 2.351770 -0.000000 -0.000000 -0.000000 5.717156 -7.295382 5.249213 -0.131911 3.102650 0.246654 8.171837 -1.856194 -1.089604 0.000000 0.000000 0.000000
-1844.953307 958.469349 3848.072212 -142.321386 5.873214 -0.894697 -0.504166 -4.527140 -1.263089 -0.178242 -7.836742 -0.570826 -0.176625 -2.016338 -0.588934 -0.179461 4.324426 -0.443359 8.998265 21.176953 8.972390 13.719488 2.983728 13.665147 -0.051084 -6.913666 10.038055 42.847160 -41.547233 -21.198243 -22.240697 -52.603839 52.299054 -26.458002 6.355550 -2.535715 -2.932805 -2.548129 -4.492386 -33.975635 -37.038772 52.751220 25.377794 -79.245795 -56.536279 -3.964989 -3.387325 -30.847666 -6.139947 -4.899943 -0.426317 0.142167 4.213466 0.211427 -12.316557 -7.062704 2.341621 0.000000 -0.000000 -0.000000 5.711767 -7.260370 5.251237 -0.122017 3.007468 0.260077 8.137344 -1.811014 -1.110706 0.000000 -0.000000 0.000000
